<mxfile host="app.diagrams.net" modified="2023-12-06T13:12:32.815Z" agent="Mozilla/5.0 (Windows NT 10.0; Win64; x64; rv:120.0) Gecko/20100101 Firefox/120.0" etag="N4k14tSy40WCCTBsfS77" version="22.1.5" type="github">
  <diagram id="wFE0QG_FPsp0jaGvCLVb" name="Page-1">
    <mxGraphModel dx="1434" dy="782" grid="1" gridSize="10" guides="1" tooltips="1" connect="1" arrows="1" fold="1" page="1" pageScale="1" pageWidth="850" pageHeight="1100" math="0" shadow="0">
      <root>
        <mxCell id="0" />
        <mxCell id="1" parent="0" />
        <object label="Юзер" id="FJGcu1I6bzAZ94VKdULp-1">
          <mxCell style="shape=umlActor;verticalLabelPosition=bottom;verticalAlign=top;html=1;outlineConnect=0;" vertex="1" parent="1">
            <mxGeometry x="425" y="590" width="40" height="80" as="geometry" />
          </mxCell>
        </object>
        <mxCell id="FJGcu1I6bzAZ94VKdULp-4" value="Возможность выбора начального шаблона" style="rounded=1;whiteSpace=wrap;html=1;spacingTop=160;" vertex="1" parent="1">
          <mxGeometry x="580" y="380" width="170" height="199.17" as="geometry" />
        </mxCell>
        <mxCell id="FJGcu1I6bzAZ94VKdULp-5" value="" style="endArrow=classic;html=1;rounded=0;" edge="1" parent="1">
          <mxGeometry width="50" height="50" relative="1" as="geometry">
            <mxPoint x="470" y="630" as="sourcePoint" />
            <mxPoint x="670" y="580" as="targetPoint" />
            <Array as="points">
              <mxPoint x="670" y="630" />
            </Array>
          </mxGeometry>
        </mxCell>
        <mxCell id="FJGcu1I6bzAZ94VKdULp-8" value="Показать полный список шаблонов" style="ellipse;whiteSpace=wrap;html=1;fontStyle=0" vertex="1" parent="1">
          <mxGeometry x="605" y="470" width="120" height="60" as="geometry" />
        </mxCell>
        <mxCell id="FJGcu1I6bzAZ94VKdULp-10" value="" style="endArrow=classic;html=1;rounded=0;" edge="1" parent="1" source="FJGcu1I6bzAZ94VKdULp-9">
          <mxGeometry width="50" height="50" relative="1" as="geometry">
            <mxPoint x="664.5" y="430" as="sourcePoint" />
            <mxPoint x="664.5" y="330" as="targetPoint" />
          </mxGeometry>
        </mxCell>
        <mxCell id="FJGcu1I6bzAZ94VKdULp-11" value="Редактирование структуры сайта" style="rounded=1;whiteSpace=wrap;html=1;spacingTop=0;spacingBottom=180;" vertex="1" parent="1">
          <mxGeometry x="170" y="90" width="610" height="240" as="geometry" />
        </mxCell>
        <mxCell id="FJGcu1I6bzAZ94VKdULp-12" value="Изменение расположения блоков" style="ellipse;whiteSpace=wrap;html=1;" vertex="1" parent="1">
          <mxGeometry x="630" y="140" width="120" height="60" as="geometry" />
        </mxCell>
        <mxCell id="FJGcu1I6bzAZ94VKdULp-14" value="Подбор цветовой палитры" style="ellipse;whiteSpace=wrap;html=1;" vertex="1" parent="1">
          <mxGeometry x="630" y="260" width="120" height="60" as="geometry" />
        </mxCell>
        <mxCell id="FJGcu1I6bzAZ94VKdULp-15" value="Масштабирование" style="ellipse;whiteSpace=wrap;html=1;" vertex="1" parent="1">
          <mxGeometry x="465" y="140" width="120" height="60" as="geometry" />
        </mxCell>
        <mxCell id="FJGcu1I6bzAZ94VKdULp-16" value="Добавление анимации" style="ellipse;whiteSpace=wrap;html=1;" vertex="1" parent="1">
          <mxGeometry x="465" y="260" width="120" height="60" as="geometry" />
        </mxCell>
        <mxCell id="FJGcu1I6bzAZ94VKdULp-17" value="Готовая структура" style="ellipse;whiteSpace=wrap;html=1;" vertex="1" parent="1">
          <mxGeometry x="540" y="200" width="120" height="60" as="geometry" />
        </mxCell>
        <mxCell id="FJGcu1I6bzAZ94VKdULp-18" value="" style="endArrow=classic;html=1;rounded=0;" edge="1" parent="1" target="FJGcu1I6bzAZ94VKdULp-9">
          <mxGeometry width="50" height="50" relative="1" as="geometry">
            <mxPoint x="664.5" y="430" as="sourcePoint" />
            <mxPoint x="664.5" y="330" as="targetPoint" />
          </mxGeometry>
        </mxCell>
        <mxCell id="FJGcu1I6bzAZ94VKdULp-9" value="Выбрать шаблон" style="ellipse;whiteSpace=wrap;html=1;" vertex="1" parent="1">
          <mxGeometry x="605" y="390" width="120" height="60" as="geometry" />
        </mxCell>
        <mxCell id="FJGcu1I6bzAZ94VKdULp-20" value="" style="endArrow=classic;html=1;rounded=0;entryX=0.5;entryY=1;entryDx=0;entryDy=0;exitX=0.5;exitY=0;exitDx=0;exitDy=0;" edge="1" parent="1" source="FJGcu1I6bzAZ94VKdULp-8" target="FJGcu1I6bzAZ94VKdULp-9">
          <mxGeometry width="50" height="50" relative="1" as="geometry">
            <mxPoint x="400" y="420" as="sourcePoint" />
            <mxPoint x="450" y="370" as="targetPoint" />
          </mxGeometry>
        </mxCell>
        <mxCell id="FJGcu1I6bzAZ94VKdULp-22" value="" style="endArrow=classic;html=1;rounded=0;entryX=0.033;entryY=0.75;entryDx=0;entryDy=0;entryPerimeter=0;exitX=0.417;exitY=0.017;exitDx=0;exitDy=0;exitPerimeter=0;" edge="1" parent="1" source="FJGcu1I6bzAZ94VKdULp-16" target="FJGcu1I6bzAZ94VKdULp-17">
          <mxGeometry width="50" height="50" relative="1" as="geometry">
            <mxPoint x="400" y="410" as="sourcePoint" />
            <mxPoint x="450" y="360" as="targetPoint" />
          </mxGeometry>
        </mxCell>
        <mxCell id="FJGcu1I6bzAZ94VKdULp-23" value="" style="endArrow=classic;html=1;rounded=0;entryX=0;entryY=0;entryDx=0;entryDy=0;exitX=0.45;exitY=0.967;exitDx=0;exitDy=0;exitPerimeter=0;" edge="1" parent="1" source="FJGcu1I6bzAZ94VKdULp-15" target="FJGcu1I6bzAZ94VKdULp-17">
          <mxGeometry width="50" height="50" relative="1" as="geometry">
            <mxPoint x="400" y="410" as="sourcePoint" />
            <mxPoint x="450" y="360" as="targetPoint" />
          </mxGeometry>
        </mxCell>
        <mxCell id="FJGcu1I6bzAZ94VKdULp-24" value="" style="endArrow=classic;html=1;rounded=0;entryX=1;entryY=0;entryDx=0;entryDy=0;exitX=0.308;exitY=0.967;exitDx=0;exitDy=0;exitPerimeter=0;" edge="1" parent="1" source="FJGcu1I6bzAZ94VKdULp-12" target="FJGcu1I6bzAZ94VKdULp-17">
          <mxGeometry width="50" height="50" relative="1" as="geometry">
            <mxPoint x="690" y="280" as="sourcePoint" />
            <mxPoint x="750" y="200" as="targetPoint" />
          </mxGeometry>
        </mxCell>
        <mxCell id="FJGcu1I6bzAZ94VKdULp-27" value="" style="endArrow=classic;html=1;rounded=0;entryX=1;entryY=1;entryDx=0;entryDy=0;exitX=0.3;exitY=0.033;exitDx=0;exitDy=0;exitPerimeter=0;" edge="1" parent="1" source="FJGcu1I6bzAZ94VKdULp-14" target="FJGcu1I6bzAZ94VKdULp-17">
          <mxGeometry width="50" height="50" relative="1" as="geometry">
            <mxPoint x="700" y="260" as="sourcePoint" />
            <mxPoint x="750" y="210" as="targetPoint" />
          </mxGeometry>
        </mxCell>
        <mxCell id="FJGcu1I6bzAZ94VKdULp-29" value="Заполнение сайта информацией" style="rounded=1;whiteSpace=wrap;html=1;spacingTop=0;spacingBottom=160;" vertex="1" parent="1">
          <mxGeometry x="190" y="100" width="150" height="220" as="geometry" />
        </mxCell>
        <mxCell id="FJGcu1I6bzAZ94VKdULp-30" value="Передача тела сайта" style="endArrow=classic;html=1;rounded=0;entryX=1.02;entryY=0.582;entryDx=0;entryDy=0;exitX=0;exitY=0.5;exitDx=0;exitDy=0;entryPerimeter=0;" edge="1" parent="1" source="FJGcu1I6bzAZ94VKdULp-17" target="FJGcu1I6bzAZ94VKdULp-29">
          <mxGeometry x="0.0161" y="-9" width="50" height="50" relative="1" as="geometry">
            <mxPoint x="400" y="410" as="sourcePoint" />
            <mxPoint x="450" y="360" as="targetPoint" />
            <mxPoint as="offset" />
          </mxGeometry>
        </mxCell>
        <mxCell id="FJGcu1I6bzAZ94VKdULp-31" value="Выбор необходимого блока" style="ellipse;whiteSpace=wrap;html=1;" vertex="1" parent="1">
          <mxGeometry x="205" y="150" width="120" height="70" as="geometry" />
        </mxCell>
        <mxCell id="FJGcu1I6bzAZ94VKdULp-32" value="Добавление текста и картинок" style="ellipse;whiteSpace=wrap;html=1;" vertex="1" parent="1">
          <mxGeometry x="205" y="250" width="120" height="60" as="geometry" />
        </mxCell>
        <mxCell id="FJGcu1I6bzAZ94VKdULp-33" value="" style="endArrow=classic;html=1;rounded=0;entryX=0.5;entryY=0;entryDx=0;entryDy=0;exitX=0.5;exitY=1;exitDx=0;exitDy=0;" edge="1" parent="1" source="FJGcu1I6bzAZ94VKdULp-31" target="FJGcu1I6bzAZ94VKdULp-32">
          <mxGeometry width="50" height="50" relative="1" as="geometry">
            <mxPoint x="400" y="410" as="sourcePoint" />
            <mxPoint x="450" y="360" as="targetPoint" />
          </mxGeometry>
        </mxCell>
        <mxCell id="FJGcu1I6bzAZ94VKdULp-34" value="" style="endArrow=classic;html=1;rounded=0;exitX=0;exitY=0.5;exitDx=0;exitDy=0;" edge="1" parent="1" source="FJGcu1I6bzAZ94VKdULp-29">
          <mxGeometry width="50" height="50" relative="1" as="geometry">
            <mxPoint x="400" y="410" as="sourcePoint" />
            <mxPoint x="80" y="130" as="targetPoint" />
            <Array as="points">
              <mxPoint x="80" y="210" />
            </Array>
          </mxGeometry>
        </mxCell>
        <mxCell id="FJGcu1I6bzAZ94VKdULp-36" value="" style="rounded=1;whiteSpace=wrap;html=1;" vertex="1" parent="1">
          <mxGeometry x="40" y="575" width="220" height="110" as="geometry" />
        </mxCell>
        <mxCell id="FJGcu1I6bzAZ94VKdULp-37" value="Архивирование" style="ellipse;whiteSpace=wrap;html=1;" vertex="1" parent="1">
          <mxGeometry x="85" y="605" width="120" height="50" as="geometry" />
        </mxCell>
        <mxCell id="FJGcu1I6bzAZ94VKdULp-39" value="" style="endArrow=classic;html=1;rounded=0;entryX=0.182;entryY=0.045;entryDx=0;entryDy=0;entryPerimeter=0;" edge="1" parent="1" target="FJGcu1I6bzAZ94VKdULp-36">
          <mxGeometry width="50" height="50" relative="1" as="geometry">
            <mxPoint x="80" y="210" as="sourcePoint" />
            <mxPoint x="450" y="360" as="targetPoint" />
          </mxGeometry>
        </mxCell>
        <mxCell id="FJGcu1I6bzAZ94VKdULp-40" value="" style="endArrow=classic;html=1;rounded=0;exitX=1;exitY=0.5;exitDx=0;exitDy=0;" edge="1" parent="1" source="FJGcu1I6bzAZ94VKdULp-36">
          <mxGeometry width="50" height="50" relative="1" as="geometry">
            <mxPoint x="400" y="410" as="sourcePoint" />
            <mxPoint x="420" y="630" as="targetPoint" />
          </mxGeometry>
        </mxCell>
        <mxCell id="FJGcu1I6bzAZ94VKdULp-41" value="Архиватор" style="shape=switch;whiteSpace=wrap;html=1;fontSize=10;" vertex="1" parent="1">
          <mxGeometry x="20" y="20" width="110" height="110" as="geometry" />
        </mxCell>
      </root>
    </mxGraphModel>
  </diagram>
</mxfile>
